<?xml version="1.0" encoding="UTF-8"?>
<svg version="1.1" xmlns="http://www.w3.org/2000/svg" width="512" height="512">
<path d="M0 0 C3.27772205 1.63886102 4.17025643 5.18116434 5.6875 8.375 C11.297733 19.75762599 17.2836465 28.58353956 26.38452148 37.45996094 C31.71782499 42.66337684 36.50012323 48.05127023 41 54 C41.71422119 54.92425781 41.71422119 54.92425781 42.44287109 55.8671875 C51.67720174 67.86923069 59.19563768 80.48122416 66 94 C66.34224609 94.67643555 66.68449219 95.35287109 67.03710938 96.04980469 C76.75775342 115.66726651 83.90715995 138.3603439 87 160 C87.09877441 160.63695801 87.19754883 161.27391602 87.29931641 161.93017578 C93.54629738 208.16671171 82.14858787 258.30147297 53.87036133 295.6887207 C48.29991678 302.79741378 42.2361927 309.4741728 36 316 C35.14277344 316.89847656 34.28554688 317.79695313 33.40234375 318.72265625 C29.50327803 322.71814399 25.65040873 326.34925479 21.125 329.625 C15.66954006 333.74069151 13.44142214 337.91500717 12.47875977 344.64282227 C11.9853274 348.75627925 11.78525989 352.86008389 11.68359375 357 C11.6524221 358.08172485 11.6524221 358.08172485 11.62062073 359.18530273 C11.55598066 361.45678507 11.49664449 363.72836862 11.4375 366 C11.3942331 367.55339529 11.35061642 369.10678087 11.30664062 370.66015625 C11.20038904 374.44000424 11.0988892 378.21995252 11 382 C9.53984709 381.71758359 8.08190207 381.42373386 6.625 381.125 C5.40683594 380.88136719 5.40683594 380.88136719 4.1640625 380.6328125 C2 380 2 380 0 378 C-0.34716797 375.85546875 -0.34716797 375.85546875 -0.4921875 373.1875 C-0.55470703 372.20273682 -0.61722656 371.21797363 -0.68164062 370.20336914 C-0.77735352 368.61770142 -0.77735352 368.61770142 -0.875 367 C-1.45938102 347.23622532 -1.45938102 347.23622532 -10.75 330.8125 C-12.47567359 329.50882519 -14.22452654 328.23499448 -16 327 C-17.28766116 325.93672336 -18.55955573 324.85397425 -19.8125 323.75 C-20.7715625 322.90888672 -20.7715625 322.90888672 -21.75 322.05078125 C-56.96437605 289.95434474 -81.90618061 244.58924938 -84.16845703 196.41259766 C-84.68567507 179.43529423 -84.08389356 162.73090999 -81 146 C-80.82259277 145.00822754 -80.64518555 144.01645508 -80.46240234 142.99462891 C-74.60135794 111.43248224 -61.61909324 76.64164684 -40.57421875 52.01953125 C-38.35695426 49.41870356 -36.31469006 46.77768643 -34.28955078 44.03100586 C-27.71660218 35.16027161 -20.12260822 27.36681216 -11.625 20.3125 C-5.12444577 14.73285762 -1.52320243 8.37761335 0 0 Z " fill="#4EAA40" transform="translate(254,12)"/>
<path d="M0 0 C1.29762268 -0.00855011 1.29762268 -0.00855011 2.62145996 -0.01727295 C4.46084362 -0.02674408 6.30024441 -0.03326527 8.13964844 -0.03710938 C10.92934857 -0.04673899 13.71828791 -0.07770959 16.5078125 -0.109375 C18.29687064 -0.11591261 20.08593404 -0.12116009 21.875 -0.125 C23.11304382 -0.1435202 23.11304382 -0.1435202 24.37609863 -0.16241455 C31.57112426 -0.13531909 39.0093484 1.16367737 44.46875 6.203125 C45.025625 6.698125 45.5825 7.193125 46.15625 7.703125 C49.40956391 11.42119804 48.85241973 16.520885 48.82421875 21.1796875 C48.27898423 25.81717675 46.63099039 27.82026319 43.46875 31.203125 C42.47875 31.863125 41.48875 32.523125 40.46875 33.203125 C41.07203125 33.57824219 41.6753125 33.95335937 42.296875 34.33984375 C47.77074768 37.84488803 52.33057155 40.78858965 54.46875 47.203125 C55.17431195 54.36284381 54.86353714 60.32680905 50.46875 66.203125 C44.83460042 72.6724544 37.79421575 76.64346945 29.16604614 77.40686035 C22.70488946 77.69764949 16.24539983 77.56796618 9.78125 77.453125 C7.80796085 77.43302743 5.83465192 77.41478243 3.86132812 77.3984375 C-0.93669274 77.3547043 -5.73374961 77.28585698 -10.53125 77.203125 C-10.20125 75.223125 -9.87125 73.243125 -9.53125 71.203125 C-8.96535156 71.08195312 -8.39945312 70.96078125 -7.81640625 70.8359375 C-7.08292969 70.66835938 -6.34945313 70.50078125 -5.59375 70.328125 C-4.86285156 70.16570312 -4.13195312 70.00328125 -3.37890625 69.8359375 C-1.32424706 69.37350977 -1.32424706 69.37350977 -0.53125 67.203125 C-0.44023388 65.3545542 -0.41371854 63.50266121 -0.41772461 61.65185547 C-0.41783791 59.91027664 -0.41783791 59.91027664 -0.41795349 58.1335144 C-0.42311478 56.87515778 -0.42827606 55.61680115 -0.43359375 54.3203125 C-0.4350087 53.03577179 -0.43642365 51.75123108 -0.43788147 50.42776489 C-0.44170089 47.01155658 -0.45152627 43.59539074 -0.46258545 40.17919922 C-0.47281193 36.69369074 -0.47738174 33.2081754 -0.48242188 29.72265625 C-0.49314904 22.88279505 -0.51021858 16.04296206 -0.53125 9.203125 C-3.86851069 7.82334999 -6.96601181 6.81430869 -10.53125 6.203125 C-9.2374395 -1.00524781 -6.79395324 0.03430961 0 0 Z M13.46875 7.203125 C13.46875 15.453125 13.46875 23.703125 13.46875 32.203125 C24.50010661 33.66616417 24.50010661 33.66616417 34.03125 29.203125 C36.13232415 24.81827461 36.21075522 20.97643692 35.46875 16.203125 C33.64048672 12.18094579 32.16120262 10.62707559 28.40625 8.328125 C23.3884664 6.6994696 23.3884664 6.6994696 13.46875 7.203125 Z M13.46875 39.203125 C13.35266873 43.61957098 13.2815368 48.03562517 13.21875 52.453125 C13.18523437 53.70738281 13.15171875 54.96164062 13.1171875 56.25390625 C13.10429687 57.45917969 13.09140625 58.66445313 13.078125 59.90625 C13.05717773 61.01645508 13.03623047 62.12666016 13.01464844 63.27050781 C13.57159028 66.86727414 14.63611108 67.99608157 17.46875 70.203125 C23.01522747 71.92932462 28.48825622 71.54911924 33.77734375 69.23046875 C37.01550027 67.26364389 38.80796756 64.52468987 40.46875 61.203125 C40.87310212 56.37422757 41.1127672 51.79622019 39.28125 47.265625 C35.47430413 42.93358315 32.02440964 40.72677297 26.46875 39.203125 C23.03807474 38.96347614 23.03807474 38.96347614 19.59375 39.078125 C18.44132812 39.09617187 17.28890625 39.11421875 16.1015625 39.1328125 C15.23273438 39.15601563 14.36390625 39.17921875 13.46875 39.203125 Z " fill="#4FAA41" transform="translate(447.53125,392.796875)"/>
<path d="M0 0 C6.38627691 -0.05098432 12.77250072 -0.08585232 19.15893555 -0.10986328 C21.32855185 -0.11988013 23.4981548 -0.13349742 25.66772461 -0.15087891 C28.79804801 -0.17531771 31.92819188 -0.18652657 35.05859375 -0.1953125 C36.01833603 -0.20563507 36.97807831 -0.21595764 37.96690369 -0.22659302 C48.91250721 -0.22838973 59.12136501 1.94419645 67.5546875 9.38671875 C74.56253294 17.20898947 77.8605333 26.62367753 78 37 C77.25322206 49.05908085 74.34450548 58.78776382 65.375 67.1796875 C55.70741638 74.58938152 45.59872284 77.32800366 33.69140625 77.1953125 C32.24132423 77.19106766 32.24132423 77.19106766 30.76194763 77.18673706 C27.69533548 77.17560407 24.62902285 77.15051224 21.5625 77.125 C19.47461361 77.11496131 17.38672262 77.10583701 15.29882812 77.09765625 C10.19910456 77.07568727 5.09960295 77.04120507 0 77 C0 74.75 0 74.75 1 72 C3.64 70.68 6.28 69.36 9 68 C9 48.2 9 28.4 9 8 C5.37 7.34 1.74 6.68 -2 6 C-1.34 4.02 -0.68 2.04 0 0 Z M24 7 C22.73930519 9.52138962 22.85937188 11.28254316 22.83886719 14.10473633 C22.82925964 15.16956741 22.8196521 16.2343985 22.80975342 17.33149719 C22.80550354 18.48667343 22.80125366 19.64184967 22.796875 20.83203125 C22.79117493 22.01592941 22.78547485 23.19982758 22.77960205 24.41960144 C22.77014179 26.92889509 22.76361401 29.43820123 22.75976562 31.94750977 C22.75006647 35.78619092 22.7190545 39.62433538 22.6875 43.46289062 C22.68096951 45.89843431 22.67571922 48.33398184 22.671875 50.76953125 C22.6595282 51.9186348 22.6471814 53.06773834 22.63446045 54.25166321 C22.63746155 55.32595078 22.64046265 56.40023834 22.64355469 57.50708008 C22.63990906 58.44924881 22.63626343 59.39141754 22.63250732 60.36213684 C23.07774682 63.55806686 24.10603362 65.40488147 26 68 C30.99998021 71.33332014 36.77958547 71.43914744 42.6640625 70.63671875 C49.77175067 68.84329279 55.15550253 65.15669125 59.3125 59.08203125 C65.03545808 48.54084744 65.14644519 37.21355263 62.03125 25.86328125 C59.14731955 17.85600467 53.42982222 12.88827363 46 9 C41.08114818 6.93770519 36.85723201 6.75199997 31.625 6.875 C30.88894531 6.88402344 30.15289062 6.89304687 29.39453125 6.90234375 C27.5962112 6.92569856 25.79806089 6.96156164 24 7 Z " fill="#4FAA41" transform="translate(353,393)"/>
<path d="M0 0 C-0.33 1.98 -0.66 3.96 -1 6 C-0.0821875 5.4946875 0.835625 4.989375 1.78125 4.46875 C14.4046619 -2.29551284 14.4046619 -2.29551284 21 -1 C24.14344435 0.74635797 26.46862726 2.46862726 29 5 C32.30221488 4.61274666 34.82826722 3.05358809 37.6875 1.4375 C42.60896796 -1.05218379 46.53900804 -2.07595752 52 -1 C56.27004427 0.43459985 59.00426199 2.54273175 61.375 6.375 C63.7593545 11.69394465 64.12372566 16.71176971 64.31640625 22.4921875 C64.35830078 23.69101562 64.40019531 24.88984375 64.44335938 26.125 C64.48267578 27.3625 64.52199219 28.6 64.5625 29.875 C64.60568359 31.13570313 64.64886719 32.39640625 64.69335938 33.6953125 C64.79909102 36.79677423 64.90118571 39.89831145 65 43 C67.31 43.99 69.62 44.98 72 46 C72 47.32 72 48.64 72 50 C63.31126982 50.89115181 54.73139464 51.11624638 46 51 C46 49.35 46 47.7 46 46 C47.98 45.34 49.96 44.68 52 44 C52.08760181 39.81263332 52.14059435 35.62550469 52.1875 31.4375 C52.21263672 30.25607422 52.23777344 29.07464844 52.26367188 27.85742188 C52.31712678 21.4962883 52.3237826 16.52414217 49 11 C45.34796746 8.56531164 42.24565787 8.30850056 38 9 C36.02 9.99 34.04 10.98 32 12 C32.33 22.23 32.66 32.46 33 43 C34.98 43.66 36.96 44.32 39 45 C39 46.65 39 48.3 39 50 C35.04168191 50.02892857 31.08339083 50.04677427 27.125 50.0625 C25.43310547 50.07506836 25.43310547 50.07506836 23.70703125 50.08789062 C22.63066406 50.09111328 21.55429687 50.09433594 20.4453125 50.09765625 C19.45031738 50.10289307 18.45532227 50.10812988 17.43017578 50.11352539 C15 50 15 50 13 49 C13.125 47.125 13.125 47.125 14 45 C15.97664289 44.26697386 17.97765086 43.59543967 20 43 C20.08738991 38.62512669 20.140524 34.25047922 20.1875 29.875 C20.21263672 28.6375 20.23777344 27.4 20.26367188 26.125 C20.27817383 24.32675781 20.27817383 24.32675781 20.29296875 22.4921875 C20.31653442 20.84259033 20.31653442 20.84259033 20.34057617 19.15966797 C19.94486063 15.48844897 18.94337636 13.12675729 17 10 C10.27911625 6.57097768 7.95796493 8.61261052 0 11 C0 21.89 0 32.78 0 44 C2.31 44.66 4.62 45.32 7 46 C7 47.32 7 48.64 7 50 C-1.68873018 50.89115181 -10.26860536 51.11624638 -19 51 C-19 49.35 -19 47.7 -19 46 C-16.69 45.34 -14.38 44.68 -12 44 C-12 33.11 -12 22.22 -12 11 C-14.64 9.68 -17.28 8.36 -20 7 C-19.67 5.68 -19.34 4.36 -19 3 C-16.39816412 2.30238463 -13.79416398 1.61662226 -11.1875 0.9375 C-10.08051758 0.63875977 -10.08051758 0.63875977 -8.95117188 0.33398438 C-3.33984375 -1.11328125 -3.33984375 -1.11328125 0 0 Z " fill="#4EAA41" transform="translate(30,419)"/>
<path d="M0 0 C4.96065355 1.48733633 8.64369739 0.8452913 13.25390625 -1.32421875 C14.03650673 1.49314297 14.44901734 3.13547363 13.44140625 5.92578125 C12.25390625 7.67578125 12.25390625 7.67578125 10.25390625 8.67578125 C8.25430613 8.71577325 6.25343383 8.71924924 4.25390625 8.67578125 C4.3003125 9.54460937 4.34671875 10.4134375 4.39453125 11.30859375 C4.69037163 20.75435434 4.69037163 20.75435434 2.56640625 25.23828125 C-2.86745651 30.96586633 -8.39410786 33.98939077 -16.12109375 35.67578125 C-17.91546875 36.17078125 -17.91546875 36.17078125 -19.74609375 36.67578125 C-20.07609375 37.66578125 -20.40609375 38.65578125 -20.74609375 39.67578125 C-20.0504834 39.75094971 -19.35487305 39.82611816 -18.63818359 39.90356445 C-15.46438733 40.25330062 -12.29286136 40.62061961 -9.12109375 40.98828125 C-8.02667969 41.10623047 -6.93226563 41.22417969 -5.8046875 41.34570312 C0.62303967 42.10534361 6.07492856 42.82566332 11.06640625 47.30078125 C13.5349444 52.23785755 13.91407843 57.53332137 12.25390625 62.80078125 C8.5822583 71.08257012 1.37794722 75.38261891 -6.74609375 78.67578125 C-13.97465102 80.96917894 -22.7367747 80.51372539 -29.76953125 77.77734375 C-33.99247376 75.42384614 -36.89098262 72.22179008 -38.4375 67.6171875 C-39.00107594 64.47895937 -38.87884173 62.04747559 -37.80859375 59.05078125 C-34.87562325 55.67342128 -31.41295612 53.21035833 -27.74609375 50.67578125 C-28.17921875 50.216875 -28.61234375 49.75796875 -29.05859375 49.28515625 C-29.61546875 48.6715625 -30.17234375 48.05796875 -30.74609375 47.42578125 C-31.30296875 46.8225 -31.85984375 46.21921875 -32.43359375 45.59765625 C-33.74609375 43.67578125 -33.74609375 43.67578125 -33.74609375 39.67578125 C-28.63498264 35.67578125 -28.63498264 35.67578125 -25.74609375 35.67578125 C-25.74609375 35.01578125 -25.74609375 34.35578125 -25.74609375 33.67578125 C-26.48859375 33.44890625 -27.23109375 33.22203125 -27.99609375 32.98828125 C-32.22459413 30.97013334 -34.03569922 28.13039863 -36.05859375 23.98828125 C-37.29859196 18.0137444 -36.81207522 12.73160266 -33.99609375 7.30078125 C-24.79393691 -3.43506839 -12.80270844 -4.2274984 0 0 Z M-24.74609375 7.67578125 C-26.59390193 13.21920579 -26.42424798 17.83181495 -23.93359375 23.05078125 C-22.39983601 26.0007674 -21.65781444 26.73463413 -18.74609375 28.67578125 C-14.68781788 29.13514133 -14.68781788 29.13514133 -10.74609375 28.67578125 C-7.15858486 25.27224717 -5.87467501 22.34733765 -5.49609375 17.42578125 C-5.83145635 12.39534224 -7.08084438 8.51945019 -10.49609375 4.73828125 C-16.19225148 2.04842899 -20.49589196 3.30057352 -24.74609375 7.67578125 Z M-26.62890625 55.89453125 C-28.57619842 58.99930478 -28.4504704 61.153898 -27.74609375 64.67578125 C-25.35307643 69.06297967 -22.41502872 70.68559896 -17.8203125 72.171875 C-11.75626594 73.64506145 -6.11673636 72.76796942 -0.74609375 69.67578125 C2.43584453 66.26101821 3.27081117 64.67317162 3.19140625 59.98828125 C2.17073332 56.0829303 2.17073332 56.0829303 -0.74609375 53.67578125 C-8.91124275 50.30321971 -20.10881871 49.017623 -26.62890625 55.89453125 Z " fill="#4EAA41" transform="translate(271.74609375,420.32421875)"/>
<path d="M0 0 C0 1.65 0 3.3 0 5 C0.54269531 4.65066406 1.08539063 4.30132812 1.64453125 3.94140625 C2.35996094 3.48636719 3.07539063 3.03132813 3.8125 2.5625 C4.52019531 2.11003906 5.22789062 1.65757812 5.95703125 1.19140625 C10.98330244 -1.73978441 16.34839882 -1.58213918 22 -1 C26.50911167 1.17403598 28.85819183 3.49093016 31 8 C31.93168134 11.07127937 32.17248418 13.93897582 32.28125 17.140625 C32.33732422 18.62369141 32.33732422 18.62369141 32.39453125 20.13671875 C32.44673828 21.67779297 32.44673828 21.67779297 32.5 23.25 C32.63478799 27.16883604 32.79132832 31.08435774 33 35 C33.06368774 36.21139648 33.06368774 36.21139648 33.12866211 37.44726562 C33.35670665 41.4008196 33.35670665 41.4008196 35.62890625 44.4375 C36.58603516 44.7159375 36.58603516 44.7159375 37.5625 45 C38.696875 45.33 39.83125 45.66 41 46 C40.67 47.65 40.34 49.3 40 51 C31.42 51 22.84 51 14 51 C14 49.02 14 47.04 14 45 C15.98 44.34 17.96 43.68 20 43 C20.05817206 38.77089131 20.09365463 34.54188591 20.125 30.3125 C20.14175781 29.11431641 20.15851563 27.91613281 20.17578125 26.68164062 C20.18222656 25.52470703 20.18867188 24.36777344 20.1953125 23.17578125 C20.20578613 22.11270752 20.21625977 21.04963379 20.22705078 19.9543457 C19.92214952 15.9870229 19.03893101 13.11588887 16.3125 10.1875 C13.01054075 8.49189931 10.67076952 8.62026522 7 9 C3.59742945 9.95038653 3.59742945 9.95038653 1 12 C0.00940089 16.1028079 -0.11848058 20.06692375 -0.09765625 24.2734375 C-0.09282227 26.00400391 -0.09282227 26.00400391 -0.08789062 27.76953125 C-0.07951172 28.95933594 -0.07113281 30.14914062 -0.0625 31.375 C-0.05798828 32.58800781 -0.05347656 33.80101562 -0.04882812 35.05078125 C-0.03708354 38.03390507 -0.0206584 41.01692679 0 44 C3.465 44.495 3.465 44.495 7 45 C8.125 48.75 8.125 48.75 7 51 C-1.91 51 -10.82 51 -20 51 C-20 49.35 -20 47.7 -20 46 C-17.69 45.34 -15.38 44.68 -13 44 C-13 33.11 -13 22.22 -13 11 C-15.64 9.68 -18.28 8.36 -21 7 C-20.67 5.68 -20.34 4.36 -20 3 C-17.41932437 2.30081695 -14.83627153 1.61538951 -12.25 0.9375 C-11.15558594 0.63875977 -11.15558594 0.63875977 -10.0390625 0.33398438 C-6.28968956 -0.63744407 -3.69725762 -1.15449387 0 0 Z " fill="#4EAA40" transform="translate(189,419)"/>
<path d="M0 0 C5.72731143 4.77275952 8.55530318 10.71773436 9.31640625 18.046875 C9.6161499 26.28499092 8.8086365 33.71325807 3.1640625 40.06640625 C-3.88334762 46.53328259 -11.00206773 49.44401374 -20.53515625 49.26953125 C-27.04357085 48.55783457 -32.39471332 46.09949815 -36.9375 41.375 C-41.76867129 35.23348743 -43.61875838 27.97569036 -43.27734375 20.21875 C-42.27636467 12.21091737 -39.08307254 6.33475806 -33 1 C-22.86040981 -5.54533248 -10.51050178 -6.25098264 0 0 Z M-27 5 C-31.54225419 11.10854873 -31.54894815 17.63411386 -31 25 C-29.77560163 31.18947839 -27.44767617 35.55232383 -23 40 C-18.80549326 42.52366588 -14.78368106 42.83714419 -10 42 C-6.17425769 39.15104296 -4.4494707 36.47555865 -3 32 C-2.13696368 22.61868315 -2.74163209 15.23666271 -7.75 7.1875 C-13.73526548 1.36849189 -20.02148091 0.69410524 -27 5 Z " fill="#4FAA41" transform="translate(333,422)"/>
<path d="M0 0 C5.50320841 4.6904983 8.61692087 10.26710674 9.3515625 17.42578125 C9.71663403 26.98489103 8.51068974 33.72919402 2.23828125 41.05859375 C-3.62473965 46.7789042 -10.41154894 48.98100894 -18.5 49.4375 C-25.67302243 49.12067039 -31.90812587 46.59393201 -36.9375 41.4375 C-41.89675976 35.1682471 -43.86162596 26.898238 -43 19 C-41.62020408 11.46706014 -38.85018805 6.02605442 -33 1 C-22.85744028 -5.52832669 -10.50970904 -6.26894925 0 0 Z M-27 5 C-31.33390636 10.82835683 -31.57931174 16.95515541 -31 24 C-29.57197839 30.56259929 -26.99962343 36.42889421 -21.8125 40.875 C-17.81320475 42.4747181 -14.24771969 42.69381991 -10 42 C-5.87982362 39.63309017 -4.41840585 37.44722882 -3 33 C-2.13930994 24.242979 -2.27188564 15.69086134 -7 8 C-9.98151968 4.94203109 -12.92431957 3.25405552 -17 2 C-21.43338303 2 -23.27033452 2.69871705 -27 5 Z " fill="#4EAA40" transform="translate(152,422)"/>
</svg>
